<mxfile host="app.diagrams.net" modified="2022-03-13T18:12:24.906Z" agent="5.0 (Windows NT 10.0; Win64; x64) AppleWebKit/537.36 (KHTML, like Gecko) Chrome/99.0.4844.51 Safari/537.36" etag="29YxlIxJmGPyT8YSKpVS" version="16.6.6" type="github">
  <diagram id="aH14h_0UKPlvTHgDtw_c" name="Page-1">
    <mxGraphModel dx="1422" dy="772" grid="1" gridSize="10" guides="1" tooltips="1" connect="1" arrows="1" fold="1" page="1" pageScale="1" pageWidth="850" pageHeight="1100" math="0" shadow="0">
      <root>
        <mxCell id="0" />
        <mxCell id="1" parent="0" />
        <mxCell id="LEBhTKfpIpsFt737h_JH-20" value="AWS Cloud" style="points=[[0,0],[0.25,0],[0.5,0],[0.75,0],[1,0],[1,0.25],[1,0.5],[1,0.75],[1,1],[0.75,1],[0.5,1],[0.25,1],[0,1],[0,0.75],[0,0.5],[0,0.25]];outlineConnect=0;gradientColor=none;html=1;whiteSpace=wrap;fontSize=12;fontStyle=0;container=1;pointerEvents=0;collapsible=0;recursiveResize=0;shape=mxgraph.aws4.group;grIcon=mxgraph.aws4.group_aws_cloud_alt;strokeColor=#232F3E;fillColor=none;verticalAlign=top;align=left;spacingLeft=30;fontColor=#232F3E;dashed=0;" vertex="1" parent="1">
          <mxGeometry x="170" y="140" width="650" height="440" as="geometry" />
        </mxCell>
        <mxCell id="LEBhTKfpIpsFt737h_JH-12" value="" style="sketch=0;points=[[0,0,0],[0.25,0,0],[0.5,0,0],[0.75,0,0],[1,0,0],[0,1,0],[0.25,1,0],[0.5,1,0],[0.75,1,0],[1,1,0],[0,0.25,0],[0,0.5,0],[0,0.75,0],[1,0.25,0],[1,0.5,0],[1,0.75,0]];outlineConnect=0;fontColor=#232F3E;gradientColor=#4D72F3;gradientDirection=north;fillColor=#3334B9;strokeColor=#ffffff;dashed=0;verticalLabelPosition=bottom;verticalAlign=top;align=center;html=1;fontSize=12;fontStyle=0;aspect=fixed;shape=mxgraph.aws4.resourceIcon;resIcon=mxgraph.aws4.aurora;" vertex="1" parent="LEBhTKfpIpsFt737h_JH-20">
          <mxGeometry x="286" y="195" width="48" height="48" as="geometry" />
        </mxCell>
        <mxCell id="LEBhTKfpIpsFt737h_JH-9" value="" style="sketch=0;points=[[0,0,0],[0.25,0,0],[0.5,0,0],[0.75,0,0],[1,0,0],[0,1,0],[0.25,1,0],[0.5,1,0],[0.75,1,0],[1,1,0],[0,0.25,0],[0,0.5,0],[0,0.75,0],[1,0.25,0],[1,0.5,0],[1,0.75,0]];outlineConnect=0;fontColor=#232F3E;gradientColor=#945DF2;gradientDirection=north;fillColor=#5A30B5;strokeColor=#ffffff;dashed=0;verticalLabelPosition=bottom;verticalAlign=top;align=center;html=1;fontSize=12;fontStyle=0;aspect=fixed;shape=mxgraph.aws4.resourceIcon;resIcon=mxgraph.aws4.athena;" vertex="1" parent="LEBhTKfpIpsFt737h_JH-20">
          <mxGeometry x="470" y="421" width="40" height="40" as="geometry" />
        </mxCell>
        <mxCell id="LEBhTKfpIpsFt737h_JH-38" value="S3 Landing" style="text;html=1;strokeColor=none;fillColor=none;align=center;verticalAlign=middle;whiteSpace=wrap;rounded=0;" vertex="1" parent="LEBhTKfpIpsFt737h_JH-20">
          <mxGeometry x="39" y="270" width="60" height="30" as="geometry" />
        </mxCell>
        <mxCell id="LEBhTKfpIpsFt737h_JH-42" value="Glue Jobs" style="text;html=1;strokeColor=none;fillColor=none;align=center;verticalAlign=middle;whiteSpace=wrap;rounded=0;" vertex="1" parent="LEBhTKfpIpsFt737h_JH-20">
          <mxGeometry x="280" y="10" width="60" height="30" as="geometry" />
        </mxCell>
        <mxCell id="LEBhTKfpIpsFt737h_JH-43" value="RDS" style="text;html=1;strokeColor=none;fillColor=none;align=center;verticalAlign=middle;whiteSpace=wrap;rounded=0;" vertex="1" parent="LEBhTKfpIpsFt737h_JH-20">
          <mxGeometry x="340" y="205" width="60" height="30" as="geometry" />
        </mxCell>
        <mxCell id="LEBhTKfpIpsFt737h_JH-44" value="EMR" style="text;html=1;strokeColor=none;fillColor=none;align=center;verticalAlign=middle;whiteSpace=wrap;rounded=0;" vertex="1" parent="LEBhTKfpIpsFt737h_JH-20">
          <mxGeometry x="280" y="380" width="60" height="30" as="geometry" />
        </mxCell>
        <mxCell id="LEBhTKfpIpsFt737h_JH-48" value="Redshift" style="text;html=1;strokeColor=none;fillColor=none;align=center;verticalAlign=middle;whiteSpace=wrap;rounded=0;" vertex="1" parent="LEBhTKfpIpsFt737h_JH-20">
          <mxGeometry x="469" y="70" width="60" height="30" as="geometry" />
        </mxCell>
        <mxCell id="LEBhTKfpIpsFt737h_JH-49" value="S3 Ingested" style="text;html=1;strokeColor=none;fillColor=none;align=center;verticalAlign=middle;whiteSpace=wrap;rounded=0;" vertex="1" parent="LEBhTKfpIpsFt737h_JH-20">
          <mxGeometry x="469" y="350" width="60" height="30" as="geometry" />
        </mxCell>
        <mxCell id="LEBhTKfpIpsFt737h_JH-23" style="edgeStyle=orthogonalEdgeStyle;rounded=0;orthogonalLoop=1;jettySize=auto;html=1;entryX=0;entryY=0.5;entryDx=0;entryDy=0;entryPerimeter=0;" edge="1" parent="1" source="LEBhTKfpIpsFt737h_JH-2" target="LEBhTKfpIpsFt737h_JH-11">
          <mxGeometry relative="1" as="geometry">
            <Array as="points">
              <mxPoint x="90" y="485" />
              <mxPoint x="90" y="359" />
            </Array>
          </mxGeometry>
        </mxCell>
        <mxCell id="LEBhTKfpIpsFt737h_JH-2" value="" style="sketch=0;outlineConnect=0;fontColor=#232F3E;gradientColor=none;fillColor=#232F3D;strokeColor=none;dashed=0;verticalLabelPosition=bottom;verticalAlign=top;align=center;html=1;fontSize=12;fontStyle=0;aspect=fixed;pointerEvents=1;shape=mxgraph.aws4.traditional_server;" vertex="1" parent="1">
          <mxGeometry x="36.73" y="440" width="51.92" height="90" as="geometry" />
        </mxCell>
        <mxCell id="LEBhTKfpIpsFt737h_JH-22" style="edgeStyle=orthogonalEdgeStyle;rounded=0;orthogonalLoop=1;jettySize=auto;html=1;entryX=0;entryY=0.5;entryDx=0;entryDy=0;entryPerimeter=0;" edge="1" parent="1" source="LEBhTKfpIpsFt737h_JH-4" target="LEBhTKfpIpsFt737h_JH-11">
          <mxGeometry relative="1" as="geometry">
            <Array as="points">
              <mxPoint x="90" y="260" />
              <mxPoint x="90" y="359" />
            </Array>
          </mxGeometry>
        </mxCell>
        <mxCell id="LEBhTKfpIpsFt737h_JH-4" value="" style="sketch=0;outlineConnect=0;fontColor=#232F3E;gradientColor=none;fillColor=#232F3D;strokeColor=none;dashed=0;verticalLabelPosition=bottom;verticalAlign=top;align=center;html=1;fontSize=12;fontStyle=0;aspect=fixed;pointerEvents=1;shape=mxgraph.aws4.generic_database;" vertex="1" parent="1">
          <mxGeometry x="40" y="230" width="45.38" height="60" as="geometry" />
        </mxCell>
        <mxCell id="LEBhTKfpIpsFt737h_JH-28" style="edgeStyle=orthogonalEdgeStyle;rounded=0;orthogonalLoop=1;jettySize=auto;html=1;" edge="1" parent="1" source="LEBhTKfpIpsFt737h_JH-5" target="LEBhTKfpIpsFt737h_JH-7">
          <mxGeometry relative="1" as="geometry" />
        </mxCell>
        <mxCell id="LEBhTKfpIpsFt737h_JH-29" style="edgeStyle=orthogonalEdgeStyle;rounded=0;orthogonalLoop=1;jettySize=auto;html=1;entryX=0;entryY=0.5;entryDx=0;entryDy=0;entryPerimeter=0;" edge="1" parent="1" source="LEBhTKfpIpsFt737h_JH-5" target="LEBhTKfpIpsFt737h_JH-10">
          <mxGeometry relative="1" as="geometry" />
        </mxCell>
        <mxCell id="LEBhTKfpIpsFt737h_JH-5" value="" style="sketch=0;points=[[0,0,0],[0.25,0,0],[0.5,0,0],[0.75,0,0],[1,0,0],[0,1,0],[0.25,1,0],[0.5,1,0],[0.75,1,0],[1,1,0],[0,0.25,0],[0,0.5,0],[0,0.75,0],[1,0.25,0],[1,0.5,0],[1,0.75,0]];outlineConnect=0;fontColor=#232F3E;gradientColor=#945DF2;gradientDirection=north;fillColor=#5A30B5;strokeColor=#ffffff;dashed=0;verticalLabelPosition=bottom;verticalAlign=top;align=center;html=1;fontSize=12;fontStyle=0;aspect=fixed;shape=mxgraph.aws4.resourceIcon;resIcon=mxgraph.aws4.glue;" vertex="1" parent="1">
          <mxGeometry x="440" y="190" width="80" height="80" as="geometry" />
        </mxCell>
        <mxCell id="LEBhTKfpIpsFt737h_JH-26" style="edgeStyle=orthogonalEdgeStyle;rounded=0;orthogonalLoop=1;jettySize=auto;html=1;entryX=0;entryY=0.5;entryDx=0;entryDy=0;entryPerimeter=0;" edge="1" parent="1" source="LEBhTKfpIpsFt737h_JH-6" target="LEBhTKfpIpsFt737h_JH-7">
          <mxGeometry relative="1" as="geometry" />
        </mxCell>
        <mxCell id="LEBhTKfpIpsFt737h_JH-27" style="edgeStyle=orthogonalEdgeStyle;rounded=0;orthogonalLoop=1;jettySize=auto;html=1;" edge="1" parent="1" source="LEBhTKfpIpsFt737h_JH-6" target="LEBhTKfpIpsFt737h_JH-10">
          <mxGeometry relative="1" as="geometry" />
        </mxCell>
        <mxCell id="LEBhTKfpIpsFt737h_JH-6" value="" style="sketch=0;points=[[0,0,0],[0.25,0,0],[0.5,0,0],[0.75,0,0],[1,0,0],[0,1,0],[0.25,1,0],[0.5,1,0],[0.75,1,0],[1,1,0],[0,0.25,0],[0,0.5,0],[0,0.75,0],[1,0.25,0],[1,0.5,0],[1,0.75,0]];outlineConnect=0;fontColor=#232F3E;gradientColor=#945DF2;gradientDirection=north;fillColor=#5A30B5;strokeColor=#ffffff;dashed=0;verticalLabelPosition=bottom;verticalAlign=top;align=center;html=1;fontSize=12;fontStyle=0;aspect=fixed;shape=mxgraph.aws4.resourceIcon;resIcon=mxgraph.aws4.emr;" vertex="1" parent="1">
          <mxGeometry x="440" y="430" width="80" height="80" as="geometry" />
        </mxCell>
        <mxCell id="LEBhTKfpIpsFt737h_JH-7" value="" style="sketch=0;points=[[0,0,0],[0.25,0,0],[0.5,0,0],[0.75,0,0],[1,0,0],[0,1,0],[0.25,1,0],[0.5,1,0],[0.75,1,0],[1,1,0],[0,0.25,0],[0,0.5,0],[0,0.75,0],[1,0.25,0],[1,0.5,0],[1,0.75,0]];outlineConnect=0;fontColor=#232F3E;gradientColor=#945DF2;gradientDirection=north;fillColor=#5A30B5;strokeColor=#ffffff;dashed=0;verticalLabelPosition=bottom;verticalAlign=top;align=center;html=1;fontSize=12;fontStyle=0;aspect=fixed;shape=mxgraph.aws4.resourceIcon;resIcon=mxgraph.aws4.redshift;" vertex="1" parent="1">
          <mxGeometry x="630" y="250" width="78" height="78" as="geometry" />
        </mxCell>
        <mxCell id="LEBhTKfpIpsFt737h_JH-10" value="" style="sketch=0;points=[[0,0,0],[0.25,0,0],[0.5,0,0],[0.75,0,0],[1,0,0],[0,1,0],[0.25,1,0],[0.5,1,0],[0.75,1,0],[1,1,0],[0,0.25,0],[0,0.5,0],[0,0.75,0],[1,0.25,0],[1,0.5,0],[1,0.75,0]];outlineConnect=0;fontColor=#232F3E;gradientColor=#60A337;gradientDirection=north;fillColor=#277116;strokeColor=#ffffff;dashed=0;verticalLabelPosition=bottom;verticalAlign=top;align=center;html=1;fontSize=12;fontStyle=0;aspect=fixed;shape=mxgraph.aws4.resourceIcon;resIcon=mxgraph.aws4.s3;" vertex="1" parent="1">
          <mxGeometry x="630" y="398" width="78" height="78" as="geometry" />
        </mxCell>
        <mxCell id="LEBhTKfpIpsFt737h_JH-24" style="edgeStyle=orthogonalEdgeStyle;rounded=0;orthogonalLoop=1;jettySize=auto;html=1;entryX=0;entryY=0.5;entryDx=0;entryDy=0;entryPerimeter=0;" edge="1" parent="1" source="LEBhTKfpIpsFt737h_JH-11" target="LEBhTKfpIpsFt737h_JH-5">
          <mxGeometry relative="1" as="geometry" />
        </mxCell>
        <mxCell id="LEBhTKfpIpsFt737h_JH-25" style="edgeStyle=orthogonalEdgeStyle;rounded=0;orthogonalLoop=1;jettySize=auto;html=1;entryX=0;entryY=0.5;entryDx=0;entryDy=0;entryPerimeter=0;" edge="1" parent="1" source="LEBhTKfpIpsFt737h_JH-11" target="LEBhTKfpIpsFt737h_JH-6">
          <mxGeometry relative="1" as="geometry" />
        </mxCell>
        <mxCell id="LEBhTKfpIpsFt737h_JH-11" value="" style="sketch=0;points=[[0,0,0],[0.25,0,0],[0.5,0,0],[0.75,0,0],[1,0,0],[0,1,0],[0.25,1,0],[0.5,1,0],[0.75,1,0],[1,1,0],[0,0.25,0],[0,0.5,0],[0,0.75,0],[1,0.25,0],[1,0.5,0],[1,0.75,0]];outlineConnect=0;fontColor=#232F3E;gradientColor=#60A337;gradientDirection=north;fillColor=#277116;strokeColor=#ffffff;dashed=0;verticalLabelPosition=bottom;verticalAlign=top;align=center;html=1;fontSize=12;fontStyle=0;aspect=fixed;shape=mxgraph.aws4.resourceIcon;resIcon=mxgraph.aws4.s3;" vertex="1" parent="1">
          <mxGeometry x="200" y="320" width="78" height="78" as="geometry" />
        </mxCell>
        <mxCell id="LEBhTKfpIpsFt737h_JH-13" value="" style="sketch=0;points=[[0,0,0],[0.25,0,0],[0.5,0,0],[0.75,0,0],[1,0,0],[0,1,0],[0.25,1,0],[0.5,1,0],[0.75,1,0],[1,1,0],[0,0.25,0],[0,0.5,0],[0,0.75,0],[1,0.25,0],[1,0.5,0],[1,0.75,0]];outlineConnect=0;fontColor=#232F3E;gradientColor=#FF4F8B;gradientDirection=north;fillColor=#BC1356;strokeColor=#ffffff;dashed=0;verticalLabelPosition=bottom;verticalAlign=top;align=center;html=1;fontSize=12;fontStyle=0;aspect=fixed;shape=mxgraph.aws4.resourceIcon;resIcon=mxgraph.aws4.managed_workflows_for_apache_airflow;" vertex="1" parent="1">
          <mxGeometry x="400" y="120" width="40" height="40" as="geometry" />
        </mxCell>
        <mxCell id="LEBhTKfpIpsFt737h_JH-53" value="" style="edgeStyle=orthogonalEdgeStyle;rounded=0;orthogonalLoop=1;jettySize=auto;html=1;" edge="1" parent="1" source="LEBhTKfpIpsFt737h_JH-16" target="LEBhTKfpIpsFt737h_JH-50">
          <mxGeometry relative="1" as="geometry" />
        </mxCell>
        <mxCell id="LEBhTKfpIpsFt737h_JH-16" value="" style="sketch=0;points=[[0,0,0],[0.25,0,0],[0.5,0,0],[0.75,0,0],[1,0,0],[0,1,0],[0.25,1,0],[0.5,1,0],[0.75,1,0],[1,1,0],[0,0.25,0],[0,0.5,0],[0,0.75,0],[1,0.25,0],[1,0.5,0],[1,0.75,0]];outlineConnect=0;fontColor=#232F3E;gradientColor=#F54749;gradientDirection=north;fillColor=#C7131F;strokeColor=#ffffff;dashed=0;verticalLabelPosition=bottom;verticalAlign=top;align=center;html=1;fontSize=12;fontStyle=0;aspect=fixed;shape=mxgraph.aws4.resourceIcon;resIcon=mxgraph.aws4.key_management_service;" vertex="1" parent="1">
          <mxGeometry x="400" y="561" width="39" height="39" as="geometry" />
        </mxCell>
        <mxCell id="LEBhTKfpIpsFt737h_JH-17" value="" style="sketch=0;points=[[0,0,0],[0.25,0,0],[0.5,0,0],[0.75,0,0],[1,0,0],[0,1,0],[0.25,1,0],[0.5,1,0],[0.75,1,0],[1,1,0],[0,0.25,0],[0,0.5,0],[0,0.75,0],[1,0.25,0],[1,0.5,0],[1,0.75,0]];outlineConnect=0;fontColor=#232F3E;gradientColor=#F54749;gradientDirection=north;fillColor=#C7131F;strokeColor=#ffffff;dashed=0;verticalLabelPosition=bottom;verticalAlign=top;align=center;html=1;fontSize=12;fontStyle=0;aspect=fixed;shape=mxgraph.aws4.resourceIcon;resIcon=mxgraph.aws4.secrets_manager;" vertex="1" parent="1">
          <mxGeometry x="520" y="561" width="40" height="40" as="geometry" />
        </mxCell>
        <mxCell id="LEBhTKfpIpsFt737h_JH-19" value="" style="sketch=0;points=[[0,0,0],[0.25,0,0],[0.5,0,0],[0.75,0,0],[1,0,0],[0,1,0],[0.25,1,0],[0.5,1,0],[0.75,1,0],[1,1,0],[0,0.25,0],[0,0.5,0],[0,0.75,0],[1,0.25,0],[1,0.5,0],[1,0.75,0]];outlineConnect=0;fontColor=#232F3E;gradientColor=#F54749;gradientDirection=north;fillColor=#C7131F;strokeColor=#ffffff;dashed=0;verticalLabelPosition=bottom;verticalAlign=top;align=center;html=1;fontSize=12;fontStyle=0;aspect=fixed;shape=mxgraph.aws4.resourceIcon;resIcon=mxgraph.aws4.identity_and_access_management;" vertex="1" parent="1">
          <mxGeometry x="521" y="120" width="40" height="40" as="geometry" />
        </mxCell>
        <mxCell id="LEBhTKfpIpsFt737h_JH-8" value="" style="sketch=0;outlineConnect=0;fontColor=#232F3E;gradientColor=none;fillColor=#4D27AA;strokeColor=none;dashed=0;verticalLabelPosition=bottom;verticalAlign=top;align=center;html=1;fontSize=12;fontStyle=0;aspect=fixed;pointerEvents=1;shape=mxgraph.aws4.glue_data_catalog;" vertex="1" parent="1">
          <mxGeometry x="640" y="120" width="36.92" height="40" as="geometry" />
        </mxCell>
        <mxCell id="LEBhTKfpIpsFt737h_JH-21" value="users" style="sketch=0;outlineConnect=0;gradientColor=none;fontColor=#545B64;strokeColor=none;fillColor=#879196;dashed=0;verticalLabelPosition=bottom;verticalAlign=top;align=center;html=1;fontSize=12;fontStyle=0;aspect=fixed;shape=mxgraph.aws4.illustration_users;pointerEvents=1" vertex="1" parent="1">
          <mxGeometry x="780" y="320" width="100" height="100" as="geometry" />
        </mxCell>
        <mxCell id="LEBhTKfpIpsFt737h_JH-30" style="edgeStyle=orthogonalEdgeStyle;rounded=0;orthogonalLoop=1;jettySize=auto;html=1;" edge="1" parent="1" source="LEBhTKfpIpsFt737h_JH-12" target="LEBhTKfpIpsFt737h_JH-6">
          <mxGeometry relative="1" as="geometry" />
        </mxCell>
        <mxCell id="LEBhTKfpIpsFt737h_JH-31" style="edgeStyle=orthogonalEdgeStyle;rounded=0;orthogonalLoop=1;jettySize=auto;html=1;entryX=0.5;entryY=1;entryDx=0;entryDy=0;entryPerimeter=0;" edge="1" parent="1" source="LEBhTKfpIpsFt737h_JH-12" target="LEBhTKfpIpsFt737h_JH-5">
          <mxGeometry relative="1" as="geometry" />
        </mxCell>
        <mxCell id="LEBhTKfpIpsFt737h_JH-35" value="" style="sketch=0;points=[[0,0,0],[0.25,0,0],[0.5,0,0],[0.75,0,0],[1,0,0],[0,1,0],[0.25,1,0],[0.5,1,0],[0.75,1,0],[1,1,0],[0,0.25,0],[0,0.5,0],[0,0.75,0],[1,0.25,0],[1,0.5,0],[1,0.75,0]];outlineConnect=0;fontColor=#232F3E;gradientColor=#F78E04;gradientDirection=north;fillColor=#D05C17;strokeColor=#ffffff;dashed=0;verticalLabelPosition=bottom;verticalAlign=top;align=center;html=1;fontSize=12;fontStyle=0;aspect=fixed;shape=mxgraph.aws4.resourceIcon;resIcon=mxgraph.aws4.lambda;" vertex="1" parent="1">
          <mxGeometry x="110" y="340" width="40" height="40" as="geometry" />
        </mxCell>
        <mxCell id="LEBhTKfpIpsFt737h_JH-36" value="On Prem Server" style="text;html=1;strokeColor=none;fillColor=none;align=center;verticalAlign=middle;whiteSpace=wrap;rounded=0;" vertex="1" parent="1">
          <mxGeometry x="33" y="550" width="60" height="30" as="geometry" />
        </mxCell>
        <mxCell id="LEBhTKfpIpsFt737h_JH-37" value="Traditional DBMS" style="text;html=1;strokeColor=none;fillColor=none;align=center;verticalAlign=middle;whiteSpace=wrap;rounded=0;" vertex="1" parent="1">
          <mxGeometry x="33" y="190" width="60" height="30" as="geometry" />
        </mxCell>
        <mxCell id="LEBhTKfpIpsFt737h_JH-41" value="Lambda" style="text;html=1;strokeColor=none;fillColor=none;align=center;verticalAlign=middle;whiteSpace=wrap;rounded=0;" vertex="1" parent="1">
          <mxGeometry x="100" y="390" width="60" height="30" as="geometry" />
        </mxCell>
        <mxCell id="LEBhTKfpIpsFt737h_JH-45" value="MWAA" style="text;html=1;strokeColor=none;fillColor=none;align=center;verticalAlign=middle;whiteSpace=wrap;rounded=0;" vertex="1" parent="1">
          <mxGeometry x="390" y="80" width="60" height="30" as="geometry" />
        </mxCell>
        <mxCell id="LEBhTKfpIpsFt737h_JH-46" value="IAM" style="text;html=1;strokeColor=none;fillColor=none;align=center;verticalAlign=middle;whiteSpace=wrap;rounded=0;" vertex="1" parent="1">
          <mxGeometry x="511" y="80" width="60" height="30" as="geometry" />
        </mxCell>
        <mxCell id="LEBhTKfpIpsFt737h_JH-47" value="Glue Catalog" style="text;html=1;strokeColor=none;fillColor=none;align=center;verticalAlign=middle;whiteSpace=wrap;rounded=0;" vertex="1" parent="1">
          <mxGeometry x="628" y="80" width="60" height="30" as="geometry" />
        </mxCell>
        <mxCell id="LEBhTKfpIpsFt737h_JH-50" value="KMS" style="text;html=1;strokeColor=none;fillColor=none;align=center;verticalAlign=middle;whiteSpace=wrap;rounded=0;" vertex="1" parent="1">
          <mxGeometry x="390" y="620" width="60" height="30" as="geometry" />
        </mxCell>
        <mxCell id="LEBhTKfpIpsFt737h_JH-51" value="Secret Manager" style="text;html=1;strokeColor=none;fillColor=none;align=center;verticalAlign=middle;whiteSpace=wrap;rounded=0;" vertex="1" parent="1">
          <mxGeometry x="511" y="620" width="60" height="30" as="geometry" />
        </mxCell>
        <mxCell id="LEBhTKfpIpsFt737h_JH-52" value="Athena" style="text;html=1;strokeColor=none;fillColor=none;align=center;verticalAlign=middle;whiteSpace=wrap;rounded=0;" vertex="1" parent="1">
          <mxGeometry x="630" y="620" width="60" height="30" as="geometry" />
        </mxCell>
      </root>
    </mxGraphModel>
  </diagram>
</mxfile>
